<svg xmlns="http://www.w3.org/2000/svg" version="1.1" xmlns:xlink="http://www.w3.org/1999/xlink" xmlns:svgjs="http://svgjs.dev/svgjs" width="1000" height="999" viewBox="0 0 1000 999"><g transform="matrix(1,0,0,1,-0.215743440233382,-0.21552769679306039)"><svg viewBox="0 0 343 343" data-background-color="#ffffff" preserveAspectRatio="xMidYMid meet" height="999" width="1000" xmlns="http://www.w3.org/2000/svg" xmlns:xlink="http://www.w3.org/1999/xlink"><g id="tight-bounds" transform="matrix(1,0,0,1,0.0740000000000407,0.07400000000001228)"><svg viewBox="0 0 342.85155851775386 342.85155851775386" height="342.85155851775386" width="342.85155851775386"><g><svg></svg></g><g><svg viewBox="0 0 342.85155851775386 342.85155851775386" height="342.85155851775386" width="342.85155851775386"><g><path d="M0 171.426c0-94.676 76.75-171.426 171.426-171.426 94.676 0 171.426 76.75 171.426 171.426 0 94.676-76.75 171.426-171.426 171.426-94.676 0-171.426-76.75-171.426-171.426zM171.426 335.013c90.347 0 163.587-73.241 163.587-163.587 0-90.347-73.241-163.587-163.587-163.588-90.347 0-163.587 73.241-163.588 163.588 0 90.347 73.241 163.587 163.588 163.587z" data-fill-palette-color="tertiary" fill="#35185a" stroke="transparent"></path><ellipse rx="164.56874808852186" ry="164.56874808852186" cx="171.42577925887693" cy="171.42577925887693" fill="#35185a" stroke="transparent" stroke-width="0" fill-opacity="1" data-fill-palette-color="tertiary"></ellipse></g><g transform="matrix(1,0,0,1,64.84655864529837,127.96629124168956)"><svg viewBox="0 0 213.1584412271571 86.91897603437475" height="86.91897603437475" width="213.1584412271571"><g><svg viewBox="0 0 213.1584412271571 86.91897603437475" height="86.91897603437475" width="213.1584412271571"><g><svg viewBox="0 0 213.1584412271571 86.91897603437475" height="86.91897603437475" width="213.1584412271571"><g><svg viewBox="0 0 213.1584412271571 86.91897603437475" height="86.91897603437475" width="213.1584412271571"><g id="textblocktransform"><svg viewBox="0 0 213.1584412271571 86.91897603437475" height="86.91897603437475" width="213.1584412271571" id="textblock"><g><svg viewBox="0 0 213.1584412271571 86.91897603437475" height="86.91897603437475" width="213.1584412271571"><g transform="matrix(1,0,0,1,0,0)"><svg width="213.1584412271571" viewBox="3.200000047683716 -35.70000076293945 87.55000305175781 35.70000076293945" height="86.91897603437475" data-palette-color="#ffffff"><path d="M19.85-35.7Q24.8-35.7 28.58-33.73 32.35-31.75 34.43-27.98 36.5-24.2 36.5-18.9L36.5-18.9 36.5 0 26.6 0 26.6-7.75 12.95-7.75 12.95 0 3.2 0 3.2-18.9Q3.2-24.2 5.28-27.98 7.35-31.75 11.13-33.73 14.9-35.7 19.85-35.7L19.85-35.7ZM12.95-15.4L26.6-15.4 26.6-19.75Q26.6-23.6 24.75-25.55 22.9-27.5 19.8-27.5L19.8-27.5Q16.65-27.5 14.8-25.55 12.95-23.6 12.95-19.75L12.95-19.75 12.95-15.4ZM74.09-35.7Q79.05-35.7 82.82-33.73 86.59-31.75 88.67-27.98 90.75-24.2 90.75-18.9L90.75-18.9 90.75 0 80.84 0 80.84-7.75 67.2-7.75 67.2 0 57.45 0 57.45-18.9Q57.45-24.2 59.52-27.98 61.6-31.75 65.37-33.73 69.15-35.7 74.09-35.7L74.09-35.7ZM67.2-15.4L80.84-15.4 80.84-19.75Q80.84-23.6 79-25.55 77.15-27.5 74.05-27.5L74.05-27.5Q70.9-27.5 69.05-25.55 67.2-23.6 67.2-19.75L67.2-19.75 67.2-15.4Z" opacity="1" transform="matrix(1,0,0,1,0,0)" fill="#ffffff" class="undefined-text-0" data-fill-palette-color="quaternary" id="text-0"></path></svg></g></svg></g></svg></g></svg></g><g></g></svg></g></svg></g></svg></g></svg></g><defs></defs></svg><rect width="342.85155851775386" height="342.85155851775386" fill="none" stroke="none" visibility="hidden"></rect></g></svg></g></svg>